<?xml version="1.0" encoding="utf-8"?>
<svg version="1.1" baseProfile="tiny" id="svg3010" xmlns:svg="http://www.w3.org/2000/svg"
	 xmlns="http://www.w3.org/2000/svg" xmlns:xlink="http://www.w3.org/1999/xlink" x="0px" y="0px" 
   width="200pt"
   height="300pt" viewBox="50 70 150 300"
	 overflow="visible" xml:space="preserve">
<polygon fill="#FFFFFF" points="65,99 87,107 231,251 237,273 173,273 173,293 183,299 199,331 199,363 167,363 135,299 119,299 
	87,331 66,336 "/>
<path d="M231,251h16v32h-64v16h-16v-32h64V251z M231,251v-16h-16v16H231z M215,235v-16h-16v16H215z M199,219v-16h-16v16H199z
	 M183,203v-16h-16v16H183z M167,187v-16h-16v16H167z M151,171v-16h-16v16H151z M135,155v-16h-16v16H135z M119,139v-16h-16v16H119z
	 M103,123v-16H87v16H103z M71,107h16V91H71V75H55v272h32v-16H71V107z M119,283v16h16v-16H119z M103,315h16v-16h-16V315z M87,331h16
	v-16H87V331z M135,299v32h16v-32H135z M151,331v32h16v-32H151z M215,363v-32h-16v32H215z M199,331v-32h-16v32H199z M167,379h32v-16
	h-32V379z"/>
</svg>
